<?xml version="1.0" encoding="UTF-8" standalone="no"?>
<!-- Created with Inkscape (http://www.inkscape.org/) -->

<svg
   xmlns:dc="http://purl.org/dc/elements/1.1/"
   xmlns:cc="http://creativecommons.org/ns#"
   xmlns:rdf="http://www.w3.org/1999/02/22-rdf-syntax-ns#"
   xmlns:svg="http://www.w3.org/2000/svg"
   xmlns="http://www.w3.org/2000/svg"
   xmlns:sodipodi="http://sodipodi.sourceforge.net/DTD/sodipodi-0.dtd"
   xmlns:inkscape="http://www.inkscape.org/namespaces/inkscape"
   width="64"
   height="64"
   viewBox="0 0 64.000005 64"
   id="svg2"
   version="1.1"
   inkscape:version="0.91 r13725"
   sodipodi:docname="m.svg"
   inkscape:export-filename="D:\Desktop\M logo 2.png"
   inkscape:export-xdpi="205.95"
   inkscape:export-ydpi="205.95">
  <title
     id="title4146">m</title>
  <defs
     id="defs4" />
  <sodipodi:namedview
     id="base"
     pagecolor="#ffffff"
     bordercolor="#666666"
     borderopacity="1.0"
     inkscape:pageopacity="0.0"
     inkscape:pageshadow="2"
     inkscape:zoom="1.4"
     inkscape:cx="-42.287719"
     inkscape:cy="6.1122701"
     inkscape:document-units="px"
     inkscape:current-layer="layer1"
     showgrid="false"
     inkscape:window-width="1920"
     inkscape:window-height="1027"
     inkscape:window-x="1912"
     inkscape:window-y="-8"
     inkscape:window-maximized="1"
     fit-margin-top="0"
     fit-margin-left="0"
     fit-margin-right="0"
     fit-margin-bottom="0"
     units="px" />
  <metadata
     id="metadata7">
    <rdf:RDF>
      <cc:Work
         rdf:about="">
        <dc:format>image/svg+xml</dc:format>
        <dc:type
           rdf:resource="http://purl.org/dc/dcmitype/StillImage" />
        <dc:title>m</dc:title>
      </cc:Work>
    </rdf:RDF>
  </metadata>
  <g
     inkscape:label="Layer 1"
     inkscape:groupmode="layer"
     id="layer1"
     transform="translate(-181.6933,-683.4303)">
    <rect
       style="opacity:1;fill:#f0f1f2;fill-opacity:1;fill-rule:nonzero;stroke:none;stroke-width:2;stroke-linecap:round;stroke-linejoin:round;stroke-miterlimit:4;stroke-dasharray:none;stroke-dashoffset:0;stroke-opacity:1"
       id="rect4704"
       width="64.000008"
       height="64.000008"
       x="181.6933"
       y="683.4303" />
    <g
       transform="matrix(0.99099899,0,0,0.83863186,-70.365225,360.6422)"
       style="font-style:normal;font-variant:normal;font-weight:100;font-stretch:normal;font-size:109.70981598px;line-height:125%;font-family:Warehouse;-inkscape-font-specification:'Warehouse, Thin';text-align:start;letter-spacing:0px;word-spacing:0px;writing-mode:lr-tb;text-anchor:start;fill:#000000;fill-opacity:1;stroke:none;stroke-width:1px;stroke-linecap:butt;stroke-linejoin:miter;stroke-opacity:1"
       id="flowRoot4136">
      <path
         d="m 313.93851,406.48248 c 0.33757,0.78766 0.59074,1.65971 0.75953,2.61616 0.16878,0.95645 0.25317,1.8285 0.25317,2.61616 0,1.91289 -0.50635,4.89474 -1.51906,8.94557 -0.95644,4.05082 -1.43466,6.86389 -1.43466,8.43921 0,1.12523 0.0563,2.98186 0.16878,5.56989 0.11252,2.58803 0.16878,3.96643 0.16878,4.13521 0,2.86933 -0.36566,5.40101 -1.0127,7.51091 -0.64704,2.1099 -1.1141,3.48805 -2.91446,5.23215 -0.70736,0.39792 -0.89015,0.61572 -2.30242,0.86878 -1.41226,0.25305 -1.92833,0.22848 -2.37842,0.22848 -0.61887,0 -1.42188,-0.023 -1.94102,-0.79968 -0.51914,-0.77671 -1.29401,-5.19217 -1.68784,-7.21758 -0.33757,-2.08167 -0.50635,-4.24774 -0.50635,-6.49819 l 0,-1.94102 c 0.11252,-0.56262 0.16878,-0.95645 0.16878,-1.18149 -0.67513,0.78766 -2.22232,3.00999 -4.64157,6.66698 -2.36298,3.60073 -5.26696,6.98099 -7.25772,7.59529 -1.99076,0.6143 -2.48996,0.52814 -3.25,0.5362 -0.76005,0.008 -0.92927,-0.0248 -1.61088,-1.51188 -0.6816,-1.48713 -1.10283,-5.40999 -1.38414,-11.0924 -0.28131,-5.73867 -0.45009,-9.00183 -0.50636,-9.78949 -2.36298,2.02541 -4.47278,5.62615 -6.32941,10.8022 -1.80037,5.17605 -3.51634,8.9737 -5.14792,11.39294 -1.57532,2.41924 -4.64157,3.88204 -9.19875,4.38839 -0.45009,-0.56261 -0.75952,-1.18149 -0.92831,-1.85662 -0.16879,-0.7314 -0.25318,-1.57532 -0.25318,-2.53177 0,-1.01271 0.11252,-2.1942 0.33757,-3.54447 0.28131,-1.40653 0.56261,-2.72868 0.84392,-3.96643 0.95645,-2.98186 1.65972,-7.08895 2.10981,-12.32126 0.50635,-5.28857 1.01271,-11.0835 1.51906,-17.38479 0.67513,-0.45009 1.80036,-1.63158 3.37568,-3.54447 1.63159,-1.91289 3.15065,-3.09438 4.55718,-3.54447 1.01271,0 1.99728,0.45009 2.95373,1.35028 1.0127,0.84392 1.7441,1.82849 2.19419,2.95372 -0.0563,0.22505 -0.0844,0.56262 -0.0844,1.01271 0,0.61887 0.0844,1.29401 0.25318,2.02541 0.16878,0.7314 0.39382,1.57532 0.67513,2.53177 2.70055,-2.9256 5.14793,-5.23232 7.34212,-6.92016 2.1942,-1.74411 4.47279,-2.50364 6.83577,-2.27859 0.50635,1.06897 0.87205,2.30672 1.0971,3.71326 0.28131,1.40653 0.42196,2.72868 0.42196,3.96643 0,0.84392 -0.0563,2.33485 -0.16879,4.47278 -0.11252,2.08167 -0.16878,3.2069 -0.16878,3.37569 0,1.57532 0.16878,3.17877 0.50635,4.81035 1.29401,-0.95644 3.91017,-4.41652 7.84847,-10.38023 3.99457,-5.96371 8.07352,-9.11436 12.23687,-9.45193 z"
         style="font-style:normal;font-variant:normal;font-weight:100;font-stretch:normal;font-size:109.70981598px;line-height:125%;font-family:Warehouse;-inkscape-font-specification:'Warehouse, Thin';text-align:start;writing-mode:lr-tb;text-anchor:start;fill:#000000;fill-opacity:1"
         id="path4149"
         inkscape:connector-curvature="0"
         sodipodi:nodetypes="csscssszczszcsccczzzccccccsccccccccssccccscscccc" />
    </g>
  </g>
</svg>
